<svg width="30" height="30" viewBox="0 0 30 30" fill="none" xmlns="http://www.w3.org/2000/svg">
<g clip-path="url(#clip0_51_161)">
<path d="M14.7214 20.3571C20.047 20.3571 24.3643 16.0399 24.3643 10.7143C24.3643 5.38867 20.047 1.07141 14.7214 1.07141C9.39582 1.07141 5.07857 5.38867 5.07857 10.7143C5.07857 16.0399 9.39582 20.3571 14.7214 20.3571Z" stroke="#FF335F" stroke-width="2" stroke-linecap="round" stroke-linejoin="round"/>
<path d="M14.7214 15C17.0884 15 19.0071 13.0812 19.0071 10.7143C19.0071 8.34737 17.0884 6.42859 14.7214 6.42859C12.3545 6.42859 10.4357 8.34737 10.4357 10.7143C10.4357 13.0812 12.3545 15 14.7214 15Z" stroke="#FF335F" stroke-width="2" stroke-linecap="round" stroke-linejoin="round"/>
<path d="M12.8571 20.1857L10.9714 28.1143C10.9341 28.265 10.8651 28.406 10.7691 28.5279C10.673 28.6498 10.5521 28.7499 10.4143 28.8214C10.2689 28.8845 10.1121 28.9171 9.95357 28.9171C9.79507 28.9171 9.63826 28.8845 9.49286 28.8214L2.37857 25.7143C2.22935 25.6437 2.09804 25.5403 1.99451 25.4118C1.89098 25.2832 1.81791 25.1329 1.78079 24.972C1.74368 24.8112 1.74348 24.644 1.78021 24.4831C1.81693 24.3222 1.88964 24.1717 1.99286 24.0429L7.5 17.1429M17.1429 20.0786L19.0714 28.1143C19.1098 28.2675 19.1815 28.4104 19.2816 28.5326C19.3816 28.6549 19.5074 28.7535 19.65 28.8214C19.7914 28.8853 19.9448 28.9184 20.1 28.9184C20.2552 28.9184 20.4086 28.8853 20.55 28.8214L27.6214 25.7143C27.7729 25.6446 27.906 25.5405 28.0102 25.4103C28.1143 25.2801 28.1867 25.1274 28.2214 24.9643C28.2621 24.8048 28.2638 24.6378 28.2265 24.4775C28.1892 24.3171 28.114 24.1681 28.0071 24.0429L22.2643 16.7357" stroke="#FF335F" stroke-width="2" stroke-linecap="round" stroke-linejoin="round"/>
</g>
<defs>
<clipPath id="clip0_51_161">
<rect width="30" height="30" fill="white"/>
</clipPath>
</defs>
</svg>
