<svg width="104" height="62" viewBox="0 0 104 62" fill="none" xmlns="http://www.w3.org/2000/svg">
<path d="M11.2202 51.0076C11.7434 50.9228 12.2365 50.9797 12.6997 51.1781C13.1529 51.3782 13.5393 51.6853 13.8589 52.0994C14.1668 52.5053 14.3692 52.9739 14.4662 53.5051L15.3691 58.4483L4.85613 60.1511L3.93438 55.1046C3.84454 54.6127 3.90054 54.1681 4.10239 53.7708C4.29256 53.3653 4.57788 53.0355 4.95834 52.7814C5.32713 52.5191 5.73363 52.352 6.17784 52.2801C6.70102 52.1953 7.20897 52.2498 7.70169 52.4434C8.19442 52.6371 8.59249 52.9524 8.8959 53.3894C8.96398 52.7606 9.20843 52.2348 9.62924 51.8122C10.0483 51.3797 10.5786 51.1115 11.2202 51.0076ZM11.2312 52.0693C10.8758 52.1268 10.5644 52.2583 10.2971 52.4636C10.0198 52.6706 9.81253 52.927 9.67529 53.2328C9.53624 53.5288 9.49817 53.8489 9.56105 54.1932L10.2941 58.2068L14.2772 57.5617L13.563 53.6514C13.4983 53.2973 13.3462 52.9927 13.1065 52.7378C12.8668 52.4829 12.5837 52.2958 12.257 52.1766C11.9186 52.0491 11.5767 52.0133 11.2312 52.0693ZM5.57069 58.9719L9.45014 58.3435L8.79252 54.7431C8.72963 54.3988 8.58509 54.1082 8.35889 53.8714C8.12282 53.6362 7.84234 53.4639 7.51745 53.3544C7.19256 53.245 6.86231 53.2175 6.52668 53.2718C6.17131 53.3294 5.86397 53.4551 5.60465 53.6491C5.33546 53.8446 5.13538 54.0846 5.00441 54.3692C4.87345 54.6537 4.83761 54.9583 4.8969 55.2829L5.57069 58.9719Z" fill="#FF335F"/>
<path d="M14.1811 43.8741L3.90681 41.0701L4.21566 40.0666L8.20959 41.1566L9.00379 38.576C9.23028 37.8401 9.54877 37.2639 9.95926 36.8476C10.3697 36.4312 10.8481 36.1681 11.3944 36.0582C11.9436 35.9387 12.5317 35.9645 13.1587 36.1356C13.7279 36.291 14.2169 36.5539 14.6258 36.9245C15.0346 37.2951 15.3053 37.7575 15.438 38.3117C15.5707 38.866 15.5268 39.5015 15.3062 40.2183L14.1811 43.8741ZM13.6361 42.6376L14.4127 40.1143C14.5862 39.5504 14.6198 39.0675 14.5135 38.6655C14.3975 38.2609 14.1894 37.9347 13.8891 37.687C13.5822 37.4271 13.2358 37.2445 12.8499 37.1392C12.4447 37.0286 12.0464 36.9976 11.655 37.0462C11.2636 37.0948 10.9088 37.2621 10.5907 37.5483C10.2725 37.8344 10.0208 38.2786 9.8355 38.8807L9.06337 41.3896L13.6361 42.6376ZM16.846 35.2149L6.58624 32.4149L6.89068 31.4257L17.1505 34.2257L16.846 35.2149Z" fill="#FF335F"/>
<path d="M21.5511 27.9416L13.438 21.0422L16.4904 17.8593C16.8088 17.5273 17.1719 17.2857 17.5796 17.1345C17.9943 16.9761 18.4243 16.9027 18.8694 16.9144C19.307 16.9196 19.7335 16.9941 20.149 17.1377C20.5568 17.2749 20.9169 17.4763 21.2293 17.7419C21.6711 18.1176 22.0001 18.5678 22.2163 19.0923C22.4317 19.6031 22.5022 20.1282 22.4276 20.6675C22.3529 21.2068 22.1011 21.7002 21.6719 22.1477L19.284 24.6378L22.2778 27.1837L21.5511 27.9416ZM18.5755 24.0353L20.9323 21.5777C21.223 21.2746 21.3881 20.9366 21.4274 20.5639C21.4668 20.1911 21.4043 19.8236 21.2401 19.4612C21.076 19.0988 20.8301 18.7783 20.5025 18.4997C20.1673 18.2147 19.7896 18.0245 19.3693 17.9292C18.949 17.8338 18.5447 17.8372 18.1563 17.9393C17.7672 18.0278 17.4377 18.2127 17.1677 18.4942L14.8733 20.8868L18.5755 24.0353Z" fill="#FF335F"/>
<path d="M34.1561 18.1146L33.7728 17.317L34.3937 17.0523C34.6053 16.9622 34.7336 16.8369 34.7784 16.6766C34.8325 16.5124 34.8676 16.2857 34.8838 15.9965L34.8892 14.9354L27.2254 9.4708L28.2879 9.01796L34.8695 13.7873L34.8148 6.23623L35.8222 5.80692L35.8499 16.1385C35.8435 16.5865 35.7827 16.9328 35.6675 17.1773C35.5523 17.4219 35.3199 17.6187 34.9703 17.7677L34.1561 18.1146Z" fill="#FF335F"/>
<path d="M53.4432 14.0406L53.3764 9.45112C53.1578 9.55395 52.9042 9.65223 52.6156 9.74597C52.3269 9.8397 52.013 9.91876 51.6739 9.98314C51.3347 10.0375 50.9701 10.0672 50.5801 10.0723C49.4002 10.0875 48.5266 9.84376 47.9592 9.34105C47.3917 8.82833 47.0998 8.01203 47.0835 6.89215L47.0337 3.47251L48.0536 3.45934L48.1016 6.759C48.1137 7.58891 48.3225 8.19126 48.728 8.56606C49.1435 8.94072 49.8062 9.12218 50.7161 9.11043C51.2261 9.10385 51.7202 9.04247 52.1986 8.92628C52.687 8.80997 53.075 8.66995 53.3626 8.50622L53.2881 3.39176L54.3081 3.37859L54.4631 14.0275L53.4432 14.0406Z" fill="#FF335F"/>
<path d="M70.2012 6.74613L71.0199 7.08237L70.637 18.4273L69.6103 18.0056L69.7333 14.4597L65.3071 12.6417L62.6449 15.1447L61.6043 14.7173L70.2012 6.74613ZM69.858 13.6199L70.0867 8.0275L65.862 11.9786L69.858 13.6199Z" fill="#FF335F"/>
<path d="M77.228 22.428L85.5254 15.7515L86.2209 16.518L79.0454 22.2917L90.6559 21.4057L91.3111 22.1278L83.0137 28.8043L82.3182 28.0378L89.3652 22.3675L77.9335 23.2056L77.228 22.428ZM89.1295 18.3865C88.8002 18.0237 88.5759 17.6724 88.4565 17.3329C88.3516 16.9945 88.3394 16.6839 88.42 16.4013C88.5083 16.1124 88.666 15.8702 88.893 15.6748L89.4474 16.2857C89.2515 16.4561 89.139 16.6812 89.1098 16.961C89.0873 17.2481 89.2575 17.5917 89.6203 17.9916C89.9698 18.3767 90.2891 18.5874 90.5782 18.6238C90.8751 18.654 91.1399 18.5819 91.3726 18.4075L91.927 19.0184C91.6865 19.1991 91.4079 19.308 91.0911 19.3451C90.7821 19.3759 90.4583 19.3161 90.1197 19.1658C89.7955 19.0166 89.4655 18.7568 89.1295 18.3865Z" fill="#FF335F"/>
<path d="M87.2964 35.9022L97.6063 33.2322L97.9007 34.2401L93.312 35.4285L93.762 36.9691L99.3766 39.294L99.7172 40.4603L93.5993 37.9095L89.4788 43.3751L89.1172 42.1368L92.841 37.2386L92.3827 35.6691L87.5908 36.9101L87.2964 35.9022Z" fill="#FF335F"/>
<path d="M99.9199 55.1216L99.7735 55.9944L88.5075 58.7919L88.6911 57.6972L92.2131 56.826L93.0045 52.1069L89.9364 50.2709L90.1225 49.1614L99.9199 55.1216ZM93.0688 56.7107L98.6313 55.3697L93.7833 52.4502L93.0688 56.7107Z" fill="#FF335F"/>
</svg>
