<svg xmlns="http://www.w3.org/2000/svg" fill="none" viewBox="0 0 366 366">
  <path stroke="#F7EDBD" stroke-miterlimit="10" stroke-width="5" d="M183 363c99.411 0 180-80.589 180-180C363 83.5888 282.411 3 183 3 83.5888 3 3 83.5888 3 183c0 99.411 80.5888 180 180 180Z"/>
  <path stroke="#F7EDBD" stroke-miterlimit="10" stroke-width="5" d="M183 363c49.706 0 90-80.589 90-180 0-99.4112-40.294-180-90-180S93 83.5888 93 183c0 99.411 40.294 180 90 180Z"/>
  <path stroke="#F7EDBD" stroke-miterlimit="10" stroke-width="5" d="M57.0356 311.578c37.144-25.113 80.9464-38.549 125.7824-38.584 44.837-.035 88.66 13.332 125.844 38.386M57.0356 54.4153C94.1812 79.5235 137.983 92.9575 182.818 92.9927c44.836.0352 88.659-13.33 125.844-38.3799M3 183h360M183 363V3"/>
</svg>
